<!-- icon666.com - MILLIONS vector ICONS FREE --><svg viewBox="0 0 64 64" xmlns="http://www.w3.org/2000/svg"><g id="Database-Server-Storage-Network-Cloud"><path d="m7 48h2v2h-2z"/><path d="m11 49h2v2h-2z"/><path d="m7 55h2v2h-2z"/><path d="m11 56h2v2h-2z"/><path d="m10 41h12v2h-12z"/><path d="m39 48h2v2h-2z"/><path d="m43 49h2v2h-2z"/><path d="m39 55h2v2h-2z"/><path d="m43 56h2v2h-2z"/><path d="m42 41h12v2h-12z"/><path d="m49 36.02v-5.02a1 1 0 0 0 -1-1h-13.18a3.035 3.035 0 0 0 -1.82-1.82v-3.18h10a7 7 0 0 0 0-14 9 9 0 0 0 -16.59-4.83 6 6 0 0 0 -7.37 5.11 7 7 0 0 0 1.96 13.72h10v3.18a3.035 3.035 0 0 0 -1.82 1.82h-13.18a1 1 0 0 0 -1 1v5.02c-6.34.24-11 2.73-11 5.98v14c0 3.42 5.16 6 12 6s12-2.58 12-6v-14c0-3.25-4.66-5.74-11-5.98v-4.02h12.18a2.988 2.988 0 0 0 5.64 0h12.18v4.02c-6.34.24-11 2.73-11 5.98v14c0 3.42 5.16 6 12 6s12-2.58 12-6v-14c0-3.25-4.66-5.74-11-5.98zm-23 19.98c0 1.89-4.28 4-10 4s-10-2.11-10-4v-3.59c2.11 1.58 5.73 2.59 10 2.59s7.89-1.01 10-2.59zm0-7c0 1.89-4.28 4-10 4s-10-2.11-10-4v-3.59c2.11 1.58 5.73 2.59 10 2.59s7.89-1.01 10-2.59zm0-7c0 1.89-4.28 4-10 4s-10-2.11-10-4 4.28-4 10-4 10 2.11 10 4zm-5-19a4.994 4.994 0 0 1 -.83-9.92 1.011 1.011 0 0 0 .84-1.01c0-.02-.01-.07-.01-.11a4 4 0 0 1 4-3.96 3.936 3.936 0 0 1 1.5.3 1.012 1.012 0 0 0 1.27-.47 6.993 6.993 0 0 1 13.23 3.17 8.477 8.477 0 0 1 -.06.88.968.968 0 0 0 .24.78.981.981 0 0 0 .75.34h1.07a5 5 0 0 1 0 10zm11 9a1 1 0 1 1 1-1 1 1 0 0 1 -1 1zm26 24c0 1.89-4.28 4-10 4s-10-2.11-10-4v-3.59c2.11 1.58 5.73 2.59 10 2.59s7.89-1.01 10-2.59zm0-7c0 1.89-4.28 4-10 4s-10-2.11-10-4v-3.59c2.11 1.58 5.73 2.59 10 2.59s7.89-1.01 10-2.59zm-10-3c-5.72 0-10-2.11-10-4s4.28-4 10-4 10 2.11 10 4-4.28 4-10 4z"/><path d="m37 11h2v2h-2z"/><path d="m33 11h2v2h-2z"/><path d="m55 24.816v2.184h2v-2.184a3 3 0 1 0 -2 0zm1-3.816a1 1 0 1 1 -1 1 1 1 0 0 1 1-1z"/><path d="m55 29h2v2h-2z"/><path d="m55 33h2v2h-2z"/><path d="m7 24.816v2.184h2v-2.184a3 3 0 1 0 -2 0zm1-3.816a1 1 0 1 1 -1 1 1 1 0 0 1 1-1z"/><path d="m7 29h2v2h-2z"/><path d="m7 33h2v2h-2z"/></g></svg>
