<!-- icon666.com - MILLIONS vector ICONS FREE --><svg version="1.1" id="Capa_1" xmlns="http://www.w3.org/2000/svg" xmlns:xlink="http://www.w3.org/1999/xlink" x="0px" y="0px" viewBox="0 0 512 512" style="enable-background:new 0 0 512 512;" xml:space="preserve"><g><g><path d="M394.667,373.333V480c0,5.891-4.776,10.667-10.667,10.667H128c-5.891,0-10.667-4.776-10.667-10.667v-85.333H96V480 c0,17.673,14.327,32,32,32h256c17.673,0,32-14.327,32-32V373.333H394.667z"/></g></g><g><g><path d="M384,0H128c-17.673,0-32,14.327-32,32v85.333h21.333V32c0-5.891,4.776-10.667,10.667-10.667h256 c5.891,0,10.667,4.776,10.667,10.667v106.667H416V32C416,14.327,401.673,0,384,0z"/></g></g><g><g><rect x="138.667" y="85.333" width="234.667" height="21.333"/></g></g><g><g><rect x="138.667" y="405.333" width="234.667" height="21.333"/></g></g><g><g><rect x="170.667" y="42.667" width="128" height="21.333"/></g></g><g><g><rect x="320" y="42.667" width="21.333" height="21.333"/></g></g><g><g><rect x="245.333" y="448" width="21.333" height="21.333"/></g></g><g><g><path d="M416,224h-26.891c-1.128-3.168-2.417-6.276-3.861-9.312l19.019-19.029c4.164-4.165,4.164-10.917,0-15.083L374.091,150.4 c-4.165-4.164-10.917-4.164-15.083,0l-19.029,19.029c-3.036-1.445-6.144-2.733-9.312-3.861v-26.901 c0-5.891-4.776-10.667-10.667-10.667h-42.667c-5.891,0-10.667,4.776-10.667,10.667v26.901c-3.167,1.124-6.275,2.41-9.312,3.851 L238.325,150.4c-4.165-4.164-10.917-4.164-15.083,0l-30.176,30.176c-4.164,4.165-4.164,10.917,0,15.083l19.029,19.029 c-1.445,3.036-2.733,6.144-3.861,9.312h-26.901c-5.891,0-10.667,4.776-10.667,10.667v42.667c0,5.891,4.776,10.667,10.667,10.667 h26.901c1.124,3.167,2.41,6.276,3.851,9.312l-19.019,19.029c-4.164,4.165-4.164,10.917,0,15.083l30.176,30.176 c4.165,4.164,10.917,4.164,15.083,0l19.029-19.029c3.036,1.445,6.144,2.733,9.312,3.861v26.901 c0,5.891,4.776,10.667,10.667,10.667H320c5.891,0,10.667-4.776,10.667-10.667v-26.891c3.168-1.128,6.276-2.417,9.312-3.861 l19.029,19.019c4.165,4.164,10.917,4.164,15.083,0l30.176-30.176c4.164-4.165,4.164-10.917,0-15.083l-19.029-19.029 c1.445-3.036,2.733-6.144,3.861-9.312H416c5.891,0,10.667-4.776,10.667-10.667v-42.667C426.667,228.776,421.891,224,416,224z M405.333,266.656h-24.117c-4.863,0.001-9.11,3.291-10.325,8c-1.741,6.739-4.416,13.202-7.947,19.2 c-2.477,4.192-1.801,9.529,1.643,12.971l17.067,17.067l-15.083,15.083l-17.067-17.067c-3.442-3.444-8.779-4.12-12.971-1.643 c-5.998,3.531-12.461,6.206-19.2,7.947c-4.709,1.216-7.999,5.462-8,10.325v24.128H288l0.011-24.107 c-0.001-4.863-3.291-9.11-8-10.325c-6.739-1.741-13.202-4.416-19.2-7.947c-4.192-2.477-9.529-1.801-12.971,1.643l-17.067,17.067 l-15.083-15.083l17.067-17.067c3.444-3.442,4.12-8.779,1.643-12.971c-3.531-5.998-6.206-12.461-7.947-19.2 c-1.216-4.709-5.462-7.999-10.325-8H192v-21.333h24.117c4.863-0.001,9.11-3.291,10.325-8c1.741-6.739,4.416-13.202,7.947-19.2 c2.477-4.192,1.801-9.529-1.643-12.971l-17.067-17.067l15.083-15.083l17.067,17.067c3.442,3.444,8.779,4.12,12.971,1.643 c5.998-3.531,12.461-6.206,19.2-7.947c4.709-1.216,7.999-5.462,8-10.325v-24.128h21.323v24.117c0.001,4.863,3.291,9.11,8,10.325 c6.739,1.741,13.202,4.416,19.2,7.947c4.192,2.477,9.529,1.801,12.971-1.643l17.067-17.067l15.083,15.083l-17.067,17.067 c-3.444,3.442-4.12,8.779-1.643,12.971c3.531,5.998,6.206,12.461,7.947,19.2c1.216,4.709,5.462,7.999,10.325,8h24.128V266.656z"/></g></g><g><g><path d="M298.667,213.333C275.103,213.333,256,232.436,256,256s19.103,42.667,42.667,42.667s42.667-19.103,42.667-42.667 S322.231,213.333,298.667,213.333z M298.667,277.333c-11.782,0-21.333-9.551-21.333-21.333s9.551-21.333,21.333-21.333 c11.782,0,21.333,9.551,21.333,21.333S310.449,277.333,298.667,277.333z"/></g></g><g><g><rect x="85.333" y="138.667" width="106.667" height="21.333"/></g></g><g><g><rect x="85.333" y="352" width="106.667" height="21.333"/></g></g><g><g><rect x="85.333" y="245.333" width="64" height="21.333"/></g></g><g><g><rect x="128" y="298.667" width="42.667" height="21.333"/></g></g><g><g><rect x="128" y="192" width="42.667" height="21.333"/></g></g><g><g><rect x="85.333" y="192" width="21.333" height="21.333"/></g></g><g><g><rect x="85.333" y="298.667" width="21.333" height="21.333"/></g></g></svg>
