<!-- icon666.com - MILLIONS vector ICONS FREE --><svg enable-background="new 0 0 512 512" viewBox="0 0 512 512" xmlns="http://www.w3.org/2000/svg"><g id="_x31_9_Design"><g><path d="m509.841 73.004c0-20.033-16.299-36.333-36.333-36.333h-435.032c-20.033 0-36.333 16.299-36.333 36.333.002 30.497-.005-110.374.016 297.982 0 20.033 16.295 36.333 36.329 36.333h152.136v52.144h-32.208c-4.381 0-7.933 3.552-7.933 7.933s3.552 7.933 7.933 7.933h195.182c4.381 0 7.933-3.552 7.933-7.933s-3.552-7.933-7.933-7.933h-32.208v-52.144h152.136c20.033 0 36.329-16.299 36.329-36.333 0-18.784.006 86.31-.014-297.982zm-471.365-20.467h435.032c11.287 0 20.467 9.18 20.467 20.467v236.314h-475.966v-236.314c0-11.287 9.18-20.467 20.467-20.467zm267.05 406.926h-99.036v-52.144h99.036zm168.002-68.009c-93.215 0-343.091 0-435.04 0-11.283 0-20.463-9.18-20.463-20.467v-45.799h475.966v45.799c0 11.287-9.18 20.467-20.463 20.467z"/><path d="m215.534 347.587c-4.381 0-7.933 3.552-7.933 7.933v5.597c0 4.381 3.552 7.933 7.933 7.933s7.933-3.552 7.933-7.933v-5.597c0-4.381-3.552-7.933-7.933-7.933z"/><path d="m256.008 347.587c-4.381 0-7.933 3.552-7.933 7.933v5.597c0 4.381 3.552 7.933 7.933 7.933s7.933-3.552 7.933-7.933v-5.597c0-4.381-3.552-7.933-7.933-7.933z"/><path d="m296.481 347.587c-4.381 0-7.933 3.552-7.933 7.933v5.597c0 4.381 3.552 7.933 7.933 7.933s7.933-3.552 7.933-7.933v-5.597c0-4.381-3.552-7.933-7.933-7.933z"/><path d="m49.74 105.781c4.381 0 7.933-3.552 7.933-7.933v-13.58c0-4.381-3.552-7.933-7.933-7.933s-7.933 3.552-7.933 7.933v13.58c0 4.381 3.552 7.933 7.933 7.933z"/><path d="m84.814 105.781c4.381 0 7.933-3.552 7.933-7.933v-13.58c0-4.381-3.552-7.933-7.933-7.933s-7.933 3.552-7.933 7.933v13.58c0 4.381 3.552 7.933 7.933 7.933z"/><path d="m49.74 165.695c4.381 0 7.933-3.552 7.933-7.933v-13.58c0-4.381-3.552-7.933-7.933-7.933s-7.933 3.552-7.933 7.933v13.58c0 4.381 3.552 7.933 7.933 7.933z"/><path d="m84.814 165.695c4.381 0 7.933-3.552 7.933-7.933v-13.58c0-4.381-3.552-7.933-7.933-7.933s-7.933 3.552-7.933 7.933v13.58c0 4.381 3.552 7.933 7.933 7.933z"/><path d="m49.74 225.609c4.381 0 7.933-3.552 7.933-7.933v-13.58c0-4.381-3.552-7.933-7.933-7.933s-7.933 3.552-7.933 7.933v13.58c0 4.381 3.552 7.933 7.933 7.933z"/><path d="m84.814 225.609c4.381 0 7.933-3.552 7.933-7.933v-13.58c0-4.381-3.552-7.933-7.933-7.933s-7.933 3.552-7.933 7.933v13.58c0 4.381 3.552 7.933 7.933 7.933z"/><path d="m49.74 285.519c4.381 0 7.933-3.552 7.933-7.933v-13.576c0-4.381-3.552-7.933-7.933-7.933s-7.933 3.552-7.933 7.933v13.576c0 4.381 3.552 7.933 7.933 7.933z"/><path d="m84.814 285.519c4.381 0 7.933-3.552 7.933-7.933v-13.576c0-4.381-3.552-7.933-7.933-7.933s-7.933 3.552-7.933 7.933v13.576c0 4.381 3.552 7.933 7.933 7.933z"/><path d="m462.244 105.781c4.381 0 7.933-3.552 7.933-7.933v-13.58c0-4.381-3.552-7.933-7.933-7.933s-7.933 3.552-7.933 7.933v13.58c0 4.381 3.552 7.933 7.933 7.933z"/><path d="m462.244 165.695c4.381 0 7.933-3.552 7.933-7.933v-13.58c0-4.381-3.552-7.933-7.933-7.933s-7.933 3.552-7.933 7.933v13.58c0 4.381 3.552 7.933 7.933 7.933z"/><path d="m462.244 225.609c4.381 0 7.933-3.552 7.933-7.933v-13.58c0-4.381-3.552-7.933-7.933-7.933s-7.933 3.552-7.933 7.933v13.58c0 4.381 3.552 7.933 7.933 7.933z"/><path d="m462.244 285.519c4.381 0 7.933-3.552 7.933-7.933v-13.576c0-4.381-3.552-7.933-7.933-7.933s-7.933 3.552-7.933 7.933v13.576c0 4.381 3.552 7.933 7.933 7.933z"/><path d="m201.079 207.168h28.675v28.675c0 4.381 3.552 7.933 7.933 7.933h73.219c4.381 0 7.933-3.552 7.933-7.933v-73.219c0-4.381-3.552-7.933-7.933-7.933h-28.675v-28.675c0-4.381-3.552-7.933-7.933-7.933h-73.219c-4.381 0-7.933 3.552-7.933 7.933v73.219c0 4.381 3.552 7.933 7.933 7.933zm101.894-36.612v57.354h-57.354v-20.742h28.679c4.381 0 7.933-3.552 7.933-7.933v-28.679zm-57.354 20.746v-20.746h20.746v20.746zm-36.607-57.354h57.354v20.742h-28.679c-4.381 0-7.933 3.552-7.933 7.933v28.679h-20.742z"/></g></g></svg>
